<?xml version="1.0" ?><svg enable-background="new 0 0 512 512" id="Layer_1" version="1.1" viewBox="0 0 512 512" xml:space="preserve" xmlns="http://www.w3.org/2000/svg" xmlns:xlink="http://www.w3.org/1999/xlink"><g><g><linearGradient gradientUnits="userSpaceOnUse" id="SVGID_1_" x1="0.0000038" x2="512" y1="256" y2="256"><stop offset="0" style="stop-color:#F67950"/><stop offset="1" style="stop-color:#F15A29"/></linearGradient><circle cx="256" cy="256" fill="url(#SVGID_1_)" r="256"/><linearGradient gradientUnits="userSpaceOnUse" id="SVGID_2_" x1="42.6666679" x2="469.3333435" y1="256.0005188" y2="256.0005188"><stop offset="0" style="stop-color:#F15A29"/><stop offset="1" style="stop-color:#F67950"/></linearGradient><path d="M256,469.3338623c-117.6314697,0-213.3333282-95.7018738-213.3333282-213.3333435    S138.3685303,42.6671982,256,42.6671982c117.6357422,0,213.3333435,95.7018661,213.3333435,213.333313    S373.6357422,469.3338623,256,469.3338623z" fill="url(#SVGID_2_)"/></g><path d="M367.4880066,288.6480103v-24.6240234c0-57.071991-46.4160156-103.4879913-103.4880066-103.4879913   s-103.4879913,46.4160004-103.4879913,103.4879913v24.6720276C150.576004,295.5119934,144,306.9360046,144,319.8959961   c0,19.4880066,14.8320007,35.5679932,33.7440033,37.5840149c1.871994,5.7599792,7.2960052,9.9839783,13.6799927,9.9839783   h7.2480011c7.9199982,0,14.4000092-6.4799805,14.4000092-14.3999939V286.776001   c0-7.9200134-6.480011-14.3999939-14.4000092-14.3999939h-7.2480011c-6.3839874,0-11.8079987,4.1759949-13.6319885,9.9360046   c-2.6399994,0.2399902-5.2320099,0.815979-7.6800079,1.6319885v-19.9200134   c0-51.7919922,42.1439972-93.8879852,93.8880005-93.8879852c51.7919922,0,93.8880005,42.095993,93.8880005,93.8879852v19.9200134   c-2.447998-0.8160095-4.9920044-1.3919983-7.6319885-1.6319885c-1.8720093-5.7600098-7.2960205-9.9360046-13.6800232-9.9360046   h-7.1999817c-7.9680176,0-14.3999939,6.4799805-14.3999939,14.3999939v66.2879944   c0,7.9200134,6.4319763,14.3999939,14.3999939,14.3999939h7.1999817c6.4320068,0,11.8560181-4.223999,13.7279968-9.9839783   C369.2640076,355.4160156,384,339.3840027,384,319.8959961C384,306.9360046,377.4240112,295.4639893,367.4880066,288.6480103z" opacity="0.3"/><path d="M359.4880066,280.6480103v-24.6240234c0-57.071991-46.4160156-103.4879913-103.4880066-103.4879913   s-103.4879913,46.4160004-103.4879913,103.4879913v24.6720276C142.576004,287.5119934,136,298.9360046,136,311.8959961   c0,19.4880066,14.8320007,35.5679932,33.7440033,37.5840149c1.871994,5.7599792,7.2960052,9.9839783,13.6799927,9.9839783   h7.2480011c7.9199982,0,14.4000092-6.4799805,14.4000092-14.3999939V278.776001   c0-7.9200134-6.480011-14.3999939-14.4000092-14.3999939h-7.2480011c-6.3839874,0-11.8079987,4.1759949-13.6319885,9.9360046   c-2.6399994,0.2399902-5.2320099,0.815979-7.6800079,1.6319885v-19.9200134   c0-51.7919922,42.1439972-93.8879852,93.8880005-93.8879852c51.7919922,0,93.8880005,42.095993,93.8880005,93.8879852v19.9200134   c-2.447998-0.8160095-4.9920044-1.3919983-7.6319885-1.6319885c-1.8720093-5.7600098-7.2960205-9.9360046-13.6800232-9.9360046   h-7.1999817c-7.9680176,0-14.3999939,6.4799805-14.3999939,14.3999939v66.2879944   c0,7.9200134,6.4319763,14.3999939,14.3999939,14.3999939h7.1999817c6.4320068,0,11.8560181-4.223999,13.7279968-9.9839783   C361.2640076,347.4160156,376,331.3840027,376,311.8959961C376,298.9360046,369.4240112,287.4639893,359.4880066,280.6480103z" fill="#FFFFFF"/></g></svg>