<?xml version="1.0" encoding="iso-8859-1"?>
<!-- Generator: Adobe Illustrator 16.0.0, SVG Export Plug-In . SVG Version: 6.00 Build 0)  -->
<!DOCTYPE svg PUBLIC "-//W3C//DTD SVG 1.1//EN" "http://www.w3.org/Graphics/SVG/1.1/DTD/svg11.dtd">
<svg version="1.1" id="Capa_1" xmlns="http://www.w3.org/2000/svg" xmlns:xlink="http://www.w3.org/1999/xlink" x="0px" y="0px"
	 width="106.048px" height="106.048px" viewBox="0 0 106.048 106.048" style="enable-background:new 0 0 106.048 106.048;"
	 xml:space="preserve">
<g>
	<path style="fill:#010002;" d="M40.689,56.183h24.669v2.097H40.689V56.183z M106.048,21.209v63.629
		c0,11.666-9.543,21.21-21.21,21.21H21.209C9.543,106.048,0,96.504,0,84.838V21.209C0,9.543,9.543,0,21.209,0h63.628
		C96.505,0,106.048,9.543,106.048,21.209z M68.217,41.909c0-1.802-1.171-3.302-2.775-3.892V18.711
		c0.631-0.577,1.056-1.388,1.056-2.322c0-1.727-1.408-3.138-3.147-3.138c-1.74,0-3.148,1.411-3.148,3.138
		c0,0.935,0.424,1.74,1.051,2.322v19.027h-6.136v-6.936c0-1.152-0.948-2.084-2.098-2.084c-1.162,0-2.095,0.932-2.095,2.084v6.941
		h-4.67v-3.834c0-1.729-1.411-3.127-3.141-3.127c-1.727,0-3.138,1.398-3.138,3.127v4.427c-1.25,0.728-2.144,2.03-2.144,3.573v16.883
		c0,2.3,0.643,5.209,1.432,6.473c0.792,1.269,1.432,4.174,1.432,6.478v16.871c0,2.304,1.882,4.184,4.184,4.184H61.18
		c2.304,0,4.184-1.88,4.184-4.184V71.737c0-2.299,0.643-5.204,1.435-6.473c0.787-1.264,1.429-4.173,1.429-6.473V41.909H68.217z
		 M40.689,45.091h24.669v-2.095H40.689V45.091z M40.689,53.883h24.669v-2.089H40.689V53.883z M40.689,49.482h24.669v-2.089H40.689
		V49.482z"/>
</g>
<g>
</g>
<g>
</g>
<g>
</g>
<g>
</g>
<g>
</g>
<g>
</g>
<g>
</g>
<g>
</g>
<g>
</g>
<g>
</g>
<g>
</g>
<g>
</g>
<g>
</g>
<g>
</g>
<g>
</g>
</svg>
